<?xml version="1.0" encoding="UTF-8" standalone="no"?>
<!DOCTYPE svg PUBLIC "-//W3C//DTD SVG 1.1//EN" "http://www.w3.org/Graphics/SVG/1.1/DTD/svg11.dtd">
<!-- Generated by Microsoft Visio, SVG Export IoT Edge End2End Diagram.svg Page-1 -->
<svg xmlns="http://www.w3.org/2000/svg" xmlns:xlink="http://www.w3.org/1999/xlink" xmlns:ev="http://www.w3.org/2001/xml-events"
		xmlns:v="http://schemas.microsoft.com/visio/2003/SVGExtensions/" width="7.49247in" height="3.72695in"
		viewBox="0 0 539.458 268.341" xml:space="preserve" color-interpolation-filters="sRGB" class="st38">
	<v:documentProperties v:langID="1031" v:metric="true" v:viewMarkup="false"/>

	<style type="text/css">
	<![CDATA[
		.st1 {fill:#ffffff;stroke:#000000;stroke-linecap:round;stroke-linejoin:round;stroke-width:0.75}
		.st2 {fill:#3999c6;stroke:none;stroke-width:9.5625}
		.st3 {fill:#fcd116;stroke:none;stroke-width:9.5625}
		.st4 {fill:#ff8c00;fill-opacity:0.3;stroke:none;stroke-width:9.5625}
		.st5 {fill:none;stroke:none;stroke-linecap:round;stroke-linejoin:round;stroke-width:0.75}
		.st6 {fill:#000000;font-family:Calibri;font-size:1.00001em}
		.st7 {font-size:1em}
		.st8 {fill:#b8d432;stroke:none;stroke-width:0.75001}
		.st9 {fill:#b8d432;stroke:none;stroke-width:0.750023}
		.st10 {fill:#b8d432;stroke:none;stroke-width:0.750022}
		.st11 {fill:#b8d432;stroke:none;stroke-width:0.749982}
		.st12 {fill:#0072c6;stroke:none;stroke-width:0.75}
		.st13 {fill:#006dd6;stroke:none;stroke-width:0.75}
		.st14 {fill:#ffffff;stroke:#000000;stroke-linecap:round;stroke-linejoin:round;stroke-width:1}
		.st15 {fill:#7a7a7a;stroke:none;stroke-linecap:round;stroke-linejoin:round;stroke-width:0.75}
		.st16 {fill:#b8d432;stroke:none;stroke-linecap:round;stroke-linejoin:round;stroke-width:0.75}
		.st17 {fill:#59b4d9;stroke:none;stroke-linecap:round;stroke-linejoin:round;stroke-width:0.75}
		.st18 {fill:#ffffff;fill-opacity:0.47;stroke:none;stroke-linecap:round;stroke-linejoin:round;stroke-width:0.75}
		.st19 {fill:#00188f;stroke:none;stroke-linecap:round;stroke-linejoin:round;stroke-width:0.75}
		.st20 {fill:#ffffff;stroke:none;stroke-linecap:round;stroke-linejoin:round;stroke-width:0.75}
		.st21 {fill:#000000;font-family:Calibri;font-size:1.16666em}
		.st22 {fill:#c4d6a0;stroke:none;stroke-linecap:round;stroke-linejoin:round;stroke-width:0.75}
		.st23 {fill:#000000;font-family:Calibri;font-size:0.75em}
		.st24 {marker-end:url(#mrkr5-73);stroke:#ff0000;stroke-linecap:round;stroke-linejoin:round;stroke-width:0.75}
		.st25 {fill:#ff0000;fill-opacity:1;stroke:#ff0000;stroke-opacity:1;stroke-width:0.22935779816514}
		.st26 {marker-end:url(#mrkr5-84);stroke:#00b0f0;stroke-linecap:round;stroke-linejoin:round;stroke-width:0.75}
		.st27 {fill:#00b0f0;fill-opacity:1;stroke:#00b0f0;stroke-opacity:1;stroke-width:0.22935779816514}
		.st28 {marker-end:url(#mrkr5-90);stroke:#00b050;stroke-linecap:round;stroke-linejoin:round;stroke-width:0.75}
		.st29 {fill:#00b050;fill-opacity:1;stroke:#00b050;stroke-opacity:1;stroke-width:0.22935779816514}
		.st30 {fill:#ff0000;font-family:Calibri;font-size:1.00001em}
		.st31 {fill:#00b0f0;font-family:Calibri;font-size:1.00001em}
		.st32 {fill:#00b050;font-family:Calibri;font-size:1.00001em}
		.st33 {visibility:visible}
		.st34 {fill:#5b9bd5;fill-opacity:0.22;filter:url(#filter_2);stroke:none}
		.st35 {fill:#2075b8;stroke:none;stroke-width:1}
		.st36 {fill:#00b0f0;font-size:1em}
		.st37 {fill:#00b050;font-size:1em}
		.st38 {fill:none;fill-rule:evenodd;font-size:12px;overflow:visible;stroke-linecap:square;stroke-miterlimit:3}
	]]>
	</style>

	<defs id="Markers">
		<g id="lend5">
			<path d="M 2 1 L 0 0 L 1.98117 -0.993387 C 1.67173 -0.364515 1.67301 0.372641 1.98465 1.00043 " style="stroke:none"/>
		</g>
		<marker id="mrkr5-73" class="st25" v:arrowType="5" v:arrowSize="2" v:setback="7.63" refX="-7.63" orient="auto"
				markerUnits="strokeWidth" overflow="visible">
			<use xlink:href="#lend5" transform="scale(-4.36,-4.36) "/>
		</marker>
		<marker id="mrkr5-84" class="st27" v:arrowType="5" v:arrowSize="2" v:setback="7.63" refX="-7.63" orient="auto"
				markerUnits="strokeWidth" overflow="visible">
			<use xlink:href="#lend5" transform="scale(-4.36,-4.36) "/>
		</marker>
		<marker id="mrkr5-90" class="st29" v:arrowType="5" v:arrowSize="2" v:setback="7.63" refX="-7.63" orient="auto"
				markerUnits="strokeWidth" overflow="visible">
			<use xlink:href="#lend5" transform="scale(-4.36,-4.36) "/>
		</marker>
	</defs>
	<defs id="Filters">
		<filter id="filter_2">
			<feGaussianBlur stdDeviation="2"/>
		</filter>
	</defs>
	<g v:mID="0" v:index="1" v:groupContext="foregroundPage">
		<title>Page-1</title>
		<v:pageProperties v:drawingScale="0.0393701" v:pageScale="0.0393701" v:drawingUnits="24" v:shadowOffsetX="8.50394"
				v:shadowOffsetY="-8.50394"/>
		<v:layer v:name="Connector" v:index="0"/>
		<g id="shape69-1" v:mID="69" v:groupContext="shape" transform="translate(0.375,-0.375)">
			<title>Sheet.69</title>
			<rect x="0" y="88.4361" width="264.756" height="179.904" class="st1"/>
		</g>
		<g id="group1-3" transform="translate(51.4575,-116.589)" v:mID="1" v:groupContext="group">
			<title>Azure Functions</title>
			<g id="shape2-4" v:mID="2" v:groupContext="shape" transform="translate(27.6456,-7.25855)">
				<title>Sheet.2</title>
				<path d="M12.62 257.23 C13 256.85 12.94 256.16 12.62 255.78 L10.67 253.82 L1.96 245.37 C1.58 244.99 1.01 244.99 0.57
							 245.37 C0.19 245.74 0.06 246.44 0.57 246.82 L9.72 255.78 C10.1 256.16 10.1 256.85 9.72 257.23 L0.38
							 266.51 C0 266.89 0 267.58 0.38 267.96 C0.76 268.34 1.45 268.28 1.77 267.96 L10.41 259.38 C10.41 259.38
							 10.41 259.38 10.48 259.31 L12.62 257.23 Z" class="st2"/>
			</g>
			<g id="shape3-6" v:mID="3" v:groupContext="shape" transform="translate(0,-7.25855)">
				<title>Sheet.3</title>
				<path d="M0.38 257.23 C0 256.85 0.06 256.16 0.38 255.78 L2.34 253.82 L11.05 245.37 C11.42 244.99 11.99 244.99 12.43
							 245.37 C12.81 245.74 12.94 246.44 12.43 246.82 L3.47 255.78 C3.09 256.16 3.09 256.85 3.47 257.23 L12.62
							 266.51 C13 266.89 13 267.58 12.62 267.96 C12.24 268.34 11.55 268.28 11.23 267.96 L2.4 259.5 C2.4 259.5
							 2.4 259.5 2.34 259.44 L0.38 257.23 Z" class="st2"/>
			</g>
			<g id="shape4-8" v:mID="4" v:groupContext="shape" transform="translate(11.235,0)">
				<title>Sheet.4</title>
				<path d="M18.94 231.1 L6.63 231.1 L0 249.78 L8.08 249.85 L1.77 268.34 L19.19 243.66 L10.73 243.66 L18.94 231.1 Z"
						class="st3"/>
			</g>
			<g id="shape5-10" v:mID="5" v:groupContext="shape" transform="translate(13.0023,0)">
				<title>Sheet.5</title>
				<path d="M8.96 243.66 L17.17 231.1 L10.73 231.1 L3.91 246.63 L11.99 246.69 L0 268.34 L17.42 243.66 L8.96 243.66 Z"
						class="st4"/>
			</g>
		</g>
		<g id="shape6-12" v:mID="6" v:groupContext="shape" transform="translate(18.1909,-92.288)">
			<title>Sheet.6</title>
			<desc>Direct Method Caller</desc>
			<v:textBlock v:margins="rect(4,4,4,4)" v:tabSpace="42.5197"/>
			<v:textRect cx="53.5906" cy="261.289" width="107.19" height="14.1028"/>
			<rect x="0" y="254.238" width="107.181" height="14.1028" class="st5"/>
			<text x="17.95" y="257.69" class="st6" v:langID="1033"><v:paragraph v:horizAlign="1"/><v:tabList/>Direct Method <tspan
						x="39.69" dy="1.2em" class="st7">Caller</tspan></text>		</g>
		<g id="group7-16" transform="translate(192.114,-113.307)" v:mID="7" v:groupContext="group">
			<title>Azure IoT Hub</title>
			<g id="shape8-17" v:mID="8" v:groupContext="shape" transform="translate(-192.825,400.363) rotate(-125.106)">
				<title>Sheet.8</title>
				<rect x="0" y="266.308" width="15.6243" height="2.03242" class="st8"/>
			</g>
			<g id="shape9-19" v:mID="9" v:groupContext="shape" transform="translate(-198.135,393.252) rotate(-119.788)">
				<title>Sheet.9</title>
				<rect x="0" y="266.308" width="16.0056" height="2.03246" class="st9"/>
			</g>
			<g id="shape10-21" v:mID="10" v:groupContext="shape" transform="translate(-241.492,269.927) rotate(-94.7462)">
				<title>Sheet.10</title>
				<rect x="0" y="248.905" width="2.03245" height="19.4353" class="st10"/>
			</g>
			<g id="shape11-23" v:mID="11" v:groupContext="shape" transform="translate(-111.745,477.08) rotate(-148.928)">
				<title>Sheet.11</title>
				<rect x="0" y="255.13" width="2.03235" height="13.2102" class="st11"/>
			</g>
			<g id="shape12-25" v:mID="12" v:groupContext="shape" transform="translate(29.0887,-29.0887)">
				<title>Sheet.12</title>
				<path d="M10.92 256.91 L0.64 256.91 C0.25 256.91 0 257.16 0 257.67 L0 261.35 C0 261.74 0.25 261.99 0.64 261.99 L6.48
							 261.99 L6.48 267.71 C6.48 268.09 6.73 268.34 7.24 268.34 L10.92 268.34 C11.31 268.34 11.56 268.09 11.56
							 267.71 L11.56 257.54 C11.56 257.16 11.31 256.91 10.92 256.91 Z" class="st12"/>
			</g>
			<g id="shape13-27" v:mID="13" v:groupContext="shape">
				<title>Sheet.13</title>
				<path d="M0.64 268.34 L10.92 268.34 C11.31 268.34 11.56 268.09 11.56 267.58 L11.56 263.89 C11.56 263.51 11.31 263.26
							 10.92 263.26 L5.08 263.26 L5.08 257.54 C5.08 257.16 4.83 256.91 4.32 256.91 L0.64 256.91 C0.25 256.91
							 0 257.16 0 257.54 L0 267.71 C0 268.09 0.25 268.34 0.64 268.34 Z" class="st12"/>
			</g>
			<g id="shape14-29" v:mID="14" v:groupContext="shape" transform="translate(13.0835,-30.3589)">
				<title>Sheet.14</title>
				<ellipse cx="3.93777" cy="264.403" rx="3.93777" ry="3.93777" class="st13"/>
			</g>
			<g id="shape15-31" v:mID="15" v:groupContext="shape" transform="translate(21.3402,-16.8943)">
				<title>Sheet.15</title>
				<ellipse cx="4.69991" cy="263.641" rx="4.69991" ry="4.69991" class="st13"/>
			</g>
			<g id="shape16-33" v:mID="16" v:groupContext="shape" transform="translate(30.2319,-3.93777)">
				<title>Sheet.16</title>
				<ellipse cx="3.68372" cy="264.657" rx="3.68372" ry="3.68372" class="st13"/>
			</g>
			<g id="shape17-35" v:mID="17" v:groupContext="shape" transform="translate(16.1321,-6.98636)">
				<title>Sheet.17</title>
				<ellipse cx="3.17562" cy="265.165" rx="3.17562" ry="3.17562" class="st13"/>
			</g>
			<g id="shape18-37" v:mID="18" v:groupContext="shape" transform="translate(3.30264,-16.6402)">
				<title>Sheet.18</title>
				<ellipse cx="3.17562" cy="265.165" rx="3.17562" ry="3.17562" class="st13"/>
			</g>
		</g>
		<g id="shape19-39" v:mID="19" v:groupContext="shape" transform="translate(136.438,-92.2175)">
			<title>Sheet.19</title>
			<desc>IoT Hub</desc>
			<v:textBlock v:margins="rect(4,4,4,4)" v:tabSpace="42.5197"/>
			<v:textRect cx="76" cy="258.341" width="152" height="20"/>
			<rect x="0" y="248.341" width="152" height="20" class="st5"/>
			<text x="57" y="261.94" class="st6" v:langID="1033"><v:paragraph v:horizAlign="1"/><v:tabList/>IoT Hub</text>		</g>
		<g id="shape20-42" v:mID="20" v:groupContext="shape" transform="translate(309.231,-73.853)">
			<title>Sheet.20</title>
			<rect x="0" y="164.937" width="229.726" height="103.404" class="st14"/>
		</g>
		<g id="group21-44" transform="translate(354.706,-131.221)" v:mID="21" v:groupContext="group">
			<title>IoT Edge</title>
			<g id="shape22-45" v:mID="22" v:groupContext="shape">
				<title>Sheet.22</title>
				<path d="M33.16 257.72 L0.97 257.72 C0.4 257.72 0 258.12 0 258.63 L0 267.43 C0 267.94 0.4 268.34 0.97 268.34 L33.16
							 268.34 C33.67 268.34 34.07 267.94 34.07 267.43 L34.07 258.63 C34.07 258.12 33.67 257.72 33.16 257.72
							 Z" class="st15"/>
			</g>
			<g id="shape23-47" v:mID="23" v:groupContext="shape" transform="translate(29.1316,-6.36034)">
				<title>Sheet.23</title>
				<path d="M0 266.18 L2.1 266.18 L2.1 268.34 L0 268.34 L0 266.18 Z" class="st16"/>
			</g>
			<g id="shape24-49" v:mID="24" v:groupContext="shape" transform="translate(29.1316,-2.10118)">
				<title>Sheet.24</title>
				<path d="M0 266.18 L2.1 266.18 L2.1 268.34 L0 268.34 L0 266.18 Z" class="st16"/>
			</g>
			<g id="shape25-51" v:mID="25" v:groupContext="shape" transform="translate(0.0567868,-12.0392)">
				<title>Sheet.25</title>
				<path d="M29.42 255.45 C29.64 254.65 29.81 253.8 29.81 252.95 C29.81 248.52 26.18 245 21.75 245 C18.34 245 15.5 247.04
							 14.25 249.94 C13.23 248.81 11.7 248.12 9.99 248.12 C6.76 248.12 4.15 250.68 4.15 253.86 C4.15 254.43
							 4.2 255 4.37 255.51 C1.87 256.47 0 258.86 0 261.7 C0 265.39 3.01 268.34 6.7 268.34 L27.26 268.34 C30.95
							 268.34 33.96 265.39 33.96 261.7 C33.96 258.8 32.03 256.3 29.42 255.45 Z" class="st17"/>
			</g>
			<g id="shape26-53" v:mID="26" v:groupContext="shape" transform="translate(0.0567868,-14.3108)">
				<title>Sheet.26</title>
				<path d="M2.33 267.72 C2.33 264.82 4.2 262.38 6.87 261.41 C6.7 260.9 6.64 260.28 6.64 259.71 C6.64 256.47 9.37 253.86
							 12.78 253.86 C14.54 253.86 16.13 254.54 17.26 255.68 C18.51 252.78 21.52 250.68 25.1 250.68 C26.52 250.68
							 27.83 251.02 29.02 251.59 C27.71 249.03 24.93 247.27 21.75 247.27 C18.34 247.27 15.5 249.2 14.25 252.04
							 C13.23 250.96 11.7 250.28 9.99 250.28 C6.76 250.28 4.15 252.78 4.15 255.85 C4.15 256.41 4.2 256.98 4.37
							 257.49 C1.87 258.4 0 260.73 0 263.46 C-0 265.39 0.91 267.15 2.33 268.34 C2.33 268.11 2.33 267.89 2.33
							 267.72 Z" class="st18"/>
			</g>
			<g id="shape27-55" v:mID="27" v:groupContext="shape" transform="translate(8.98584,-2.10118)">
				<title>Sheet.27</title>
				<path d="M19.69 252.78 C19.29 251.76 18.33 251.08 17.25 251.08 C16.91 251.08 16.62 251.19 16.28 251.3 C16.23 251.3
							 16.11 251.36 16.06 251.42 L13.44 248.86 C13.62 248.41 13.73 247.9 13.73 247.39 C13.73 245.23 11.97 243.47
							 9.81 243.47 C8.79 243.47 7.82 243.92 7.14 244.55 L5.72 243.69 C5.78 243.3 5.72 242.9 5.55 242.5 C5.15
							 241.48 4.19 240.8 3.11 240.8 C2.77 240.8 2.43 240.85 2.14 240.97 C0.78 241.54 0.1 243.07 0.61 244.43
							 C1.01 245.45 1.97 246.08 3.11 246.08 C3.45 246.08 3.73 246.02 4.08 245.91 C4.25 245.85 4.47 245.74 4.64
							 245.57 L6.06 246.48 C5.95 246.76 5.95 247.04 5.95 247.39 C5.95 247.84 6.01 248.24 6.12 248.63 L3.39
							 250.34 C3.05 250.11 2.66 250 2.26 250 C1.97 250 1.69 250.05 1.41 250.17 C0.27 250.62 -0.3 251.93 0.16
							 253.12 C0.5 253.97 1.29 254.54 2.26 254.54 C2.54 254.54 2.83 254.48 3.05 254.37 C3.96 254.03 4.53 253.12
							 4.47 252.21 L7.37 250.4 C7.71 250.68 8.11 250.91 8.56 251.08 L6.74 262.09 C5.44 262.55 4.53 263.74 4.53
							 265.16 C4.53 266.92 5.95 268.34 7.71 268.34 C9.47 268.34 10.89 266.92 10.89 265.16 C10.89 263.8 10.04
							 262.6 8.85 262.15 L10.66 251.19 C11.17 251.08 11.63 250.91 12.03 250.62 L14.69 253.12 C14.58 253.63
							 14.58 254.2 14.81 254.71 C15.21 255.73 16.17 256.41 17.25 256.41 C17.59 256.41 17.93 256.36 18.22 256.19
							 C19.58 255.68 20.26 254.14 19.69 252.78 Z" class="st19"/>
			</g>
			<g id="shape28-57" v:mID="28" v:groupContext="shape" transform="translate(9.67585,-2.83944)">
				<title>Sheet.28</title>
				<path d="M18.38 253.8 C17.98 252.78 16.84 252.27 15.88 252.67 C15.65 252.78 15.42 252.89 15.25 253.06 L11.85 249.77
							 C12.13 249.26 12.36 248.75 12.36 248.12 C12.36 246.36 10.88 244.94 9.12 244.94 C8.1 244.94 7.19 245.45
							 6.57 246.25 L4.24 244.77 C4.35 244.38 4.35 243.92 4.18 243.47 C3.84 242.5 2.7 241.99 1.68 242.39 C0.72
							 242.79 0.21 243.92 0.6 244.89 C1 245.91 2.14 246.36 3.1 246.02 C3.44 245.85 3.67 245.68 3.9 245.45 L6.17
							 246.87 C6.05 247.27 5.94 247.67 5.94 248.12 C5.94 248.69 6.11 249.15 6.34 249.6 L2.65 251.93 C2.25 251.47
							 1.57 251.36 1 251.59 C0.21 251.87 -0.19 252.78 0.09 253.58 C0.43 254.37 1.34 254.77 2.14 254.48 C2.87
							 254.14 3.27 253.35 3.04 252.61 L6.79 250.28 C7.25 250.79 7.93 251.19 8.67 251.3 L6.85 263.4 C5.54 263.46
							 4.52 264.54 4.52 265.9 C4.52 267.26 5.66 268.34 7.02 268.34 C8.38 268.34 9.52 267.26 9.52 265.9 C9.52
							 264.71 8.67 263.74 7.59 263.46 L9.4 251.3 C10.2 251.25 10.88 250.91 11.39 250.4 L14.8 253.69 C14.57
							 254.14 14.57 254.65 14.74 255.17 C15.14 256.19 16.28 256.7 17.3 256.3 C18.26 255.9 18.77 254.77 18.38
							 253.8 Z" class="st20"/>
			</g>
		</g>
		<g id="shape29-59" v:mID="29" v:groupContext="shape" transform="translate(390.261,-144.459)">
			<title>Sheet.29</title>
			<desc>IoT Edge</desc>
			<v:textBlock v:margins="rect(4,4,4,4)" v:tabSpace="42.5197"/>
			<v:textRect cx="33.8337" cy="263.889" width="67.67" height="8.90361"/>
			<rect x="0" y="259.437" width="67.6674" height="8.90361" class="st5"/>
			<text x="9.51" y="268.09" class="st21" v:langID="1033"><v:paragraph v:horizAlign="1"/><v:tabList/>IoT Edge</text>		</g>
		<g id="shape41-62" v:mID="41" v:groupContext="shape" transform="translate(317.382,-97.7293)">
			<title>Sheet.41</title>
			<desc>Direct Method Receiver</desc>
			<v:textBlock v:margins="rect(4,4,4,4)" v:tabSpace="42.5197"/>
			<v:textRect cx="51.4973" cy="258.341" width="103" height="20"/>
			<rect x="0" y="248.341" width="102.995" height="20" class="st22"/>
			<text x="8.05" y="262.54" class="st23" v:langID="1033"><v:paragraph v:horizAlign="1"/><v:tabList/>Direct Method Receiver</text>		</g>
		<g id="shape43-65" v:mID="43" v:groupContext="shape" transform="translate(427.579,-97.7293)">
			<title>Sheet.43</title>
			<desc>Message Forwarder</desc>
			<v:textBlock v:margins="rect(4,4,4,4)" v:tabSpace="42.5197"/>
			<v:textRect cx="51.4973" cy="258.341" width="103" height="20"/>
			<rect x="0" y="248.341" width="102.995" height="20" class="st22"/>
			<text x="15.24" y="261.94" class="st23" v:langID="1033"><v:paragraph v:horizAlign="1"/><v:tabList/>Message Forwarder</text>		</g>
		<g id="shape46-68" v:mID="46" v:groupContext="shape" v:layerMember="0" transform="translate(96.753,-141.824)">
			<title>Dynamic connector</title>
			<path d="M0 275.43 L82.15 275.43" class="st24"/>
		</g>
		<g id="shape47-74" v:mID="47" v:groupContext="shape" v:layerMember="0" transform="translate(235.651,-134.737)">
			<title>Dynamic connector.47</title>
			<path d="M0 268.34 L93.54 268.34 L93.54 279.63" class="st24"/>
		</g>
		<g id="shape48-79" v:mID="48" v:groupContext="shape" v:layerMember="0" transform="translate(407.997,-90.6427)">
			<title>Dynamic connector.48</title>
			<path d="M0 261.25 L0 272.69 L34.58 272.69 L34.58 266.98" class="st26"/>
		</g>
		<g id="shape53-85" v:mID="53" v:groupContext="shape" v:layerMember="0" transform="translate(510.611,-97.7293)">
			<title>Dynamic connector.53</title>
			<path d="M0 268.34 L0 308.64 L-227.64 308.64 L-227.64 245.51 L-269.24 245.51" class="st28"/>
		</g>
		<g id="group54-91" transform="translate(53.7518,-25.8097)" v:mID="54" v:groupContext="group">
			<title>Azure Functions.54</title>
			<g id="shape55-92" v:mID="55" v:groupContext="shape" transform="translate(27.6456,-7.25855)">
				<title>Sheet.55</title>
				<path d="M12.62 257.23 C13 256.85 12.94 256.16 12.62 255.78 L10.67 253.82 L1.96 245.37 C1.58 244.99 1.01 244.99 0.57
							 245.37 C0.19 245.74 0.06 246.44 0.57 246.82 L9.72 255.78 C10.1 256.16 10.1 256.85 9.72 257.23 L0.38
							 266.51 C0 266.89 0 267.58 0.38 267.96 C0.76 268.34 1.45 268.28 1.77 267.96 L10.41 259.38 C10.41 259.38
							 10.41 259.38 10.48 259.31 L12.62 257.23 Z" class="st2"/>
			</g>
			<g id="shape56-94" v:mID="56" v:groupContext="shape" transform="translate(0,-7.25855)">
				<title>Sheet.56</title>
				<path d="M0.38 257.23 C0 256.85 0.06 256.16 0.38 255.78 L2.34 253.82 L11.05 245.37 C11.42 244.99 11.99 244.99 12.43
							 245.37 C12.81 245.74 12.94 246.44 12.43 246.82 L3.47 255.78 C3.09 256.16 3.09 256.85 3.47 257.23 L12.62
							 266.51 C13 266.89 13 267.58 12.62 267.96 C12.24 268.34 11.55 268.28 11.23 267.96 L2.4 259.5 C2.4 259.5
							 2.4 259.5 2.34 259.44 L0.38 257.23 Z" class="st2"/>
			</g>
			<g id="shape57-96" v:mID="57" v:groupContext="shape" transform="translate(11.235,0)">
				<title>Sheet.57</title>
				<path d="M18.94 231.1 L6.63 231.1 L0 249.78 L8.08 249.85 L1.77 268.34 L19.19 243.66 L10.73 243.66 L18.94 231.1 Z"
						class="st3"/>
			</g>
			<g id="shape58-98" v:mID="58" v:groupContext="shape" transform="translate(13.0023,0)">
				<title>Sheet.58</title>
				<path d="M8.96 243.66 L17.17 231.1 L10.73 231.1 L3.91 246.63 L11.99 246.69 L0 268.34 L17.42 243.66 L8.96 243.66 Z"
						class="st4"/>
			</g>
		</g>
		<g id="shape59-100" v:mID="59" v:groupContext="shape" transform="translate(20.4852,-7.17816)">
			<title>Sheet.59</title>
			<desc>Message Processor</desc>
			<v:textBlock v:margins="rect(4,4,4,4)" v:tabSpace="42.5197"/>
			<v:textRect cx="53.5906" cy="261.289" width="107.19" height="14.1028"/>
			<rect x="0" y="254.238" width="107.181" height="14.1028" class="st5"/>
			<text x="6.91" y="264.89" class="st6" v:langID="1033"><v:paragraph v:horizAlign="1"/><v:tabList/>Message Processor</text>		</g>
		<g id="shape60-103" v:mID="60" v:groupContext="shape" v:layerMember="0" transform="translate(184.627,-120.564)">
			<title>Dynamic connector.60</title>
			<path d="M0 268.34 L-36.85 268.34 L-36.85 345.44 L-79.32 345.44" class="st28"/>
		</g>
		<g id="shape61-108" v:mID="61" v:groupContext="shape" transform="translate(125.099,-139.655)">
			<title>Sheet.61</title>
			<desc>(1)</desc>
			<v:textBlock v:margins="rect(4,4,4,4)" v:tabSpace="42.5197"/>
			<v:textRect cx="11.3386" cy="261.254" width="22.68" height="14.1732"/>
			<rect x="0" y="254.167" width="22.6772" height="14.1732" class="st5"/>
			<text x="4.66" y="264.85" class="st30" v:langID="1033"><v:paragraph v:horizAlign="1"/><v:tabList/>(1)</text>		</g>
		<g id="shape63-111" v:mID="63" v:groupContext="shape" transform="translate(318.926,-76.5482)">
			<title>Sheet.63</title>
			<desc>(2)</desc>
			<v:textBlock v:margins="rect(4,4,4,4)" v:tabSpace="42.5197"/>
			<v:textRect cx="76" cy="258.341" width="152" height="20"/>
			<rect x="0" y="248.341" width="152" height="20" class="st5"/>
			<text x="69.32" y="261.94" class="st31" v:langID="1033"><v:paragraph v:horizAlign="1"/><v:tabList/>(2)</text>		</g>
		<g id="shape64-114" v:mID="64" v:groupContext="shape" transform="translate(318.628,-35.5246)">
			<title>Sheet.64</title>
			<desc>(3)</desc>
			<v:textBlock v:margins="rect(4,4,4,4)" v:tabSpace="42.5197"/>
			<v:textRect cx="76" cy="258.341" width="152" height="20"/>
			<rect x="0" y="248.341" width="152" height="20" class="st5"/>
			<text x="69.32" y="261.94" class="st32" v:langID="1033"><v:paragraph v:horizAlign="1"/><v:tabList/>(3)</text>		</g>
		<g id="shape68-117" v:mID="68" v:groupContext="shape" transform="translate(210.396,-21.3514)">
			<title>Azure</title>
			<g id="shadow68-118" v:groupContext="shadow" v:shadowOffsetX="0.3456" v:shadowOffsetY="-1.9728" v:shadowType="1"
					transform="matrix(1,0,0,1,0.3456,1.9728)" class="st33">
				<path d="M10.17 268.26 C10.21 268.22 14.3 267.47 19.25 266.6 C24.2 265.73 28.28 264.99 28.32 264.94 C28.39 264.87
							 27.83 264.19 21.71 256.89 C20.09 254.96 18.72 253.3 18.68 253.21 C18.62 253.09 19.25 251.25 21.08 246.21
							 C22.45 242.45 23.59 239.33 23.61 239.27 C23.64 239.21 23.7 239.15 23.76 239.15 C23.88 239.16 40.65 268.17
							 40.59 268.27 C40.56 268.31 33.69 268.34 25.31 268.34 C16.32 268.34 10.12 268.31 10.17 268.26 ZM0.03
							 264.8 C0 264.72 0.38 263.97 0.97 262.94 C1.51 262 3.83 257.99 6.11 254.05 L10.25 246.87 L16.11 241.94
							 C19.34 239.23 22.03 237.01 22.09 237.01 C22.15 237.01 22.17 237.07 22.14 237.16 C21.84 237.97 9.28 264.74
							 9.16 264.83 C9.04 264.91 7.97 264.94 4.55 264.94 C0.62 264.94 0.08 264.92 0.03 264.8 Z" class="st34"/>
			</g>
			<path d="M10.17 268.26 C10.21 268.22 14.3 267.47 19.25 266.6 C24.2 265.73 28.28 264.99 28.32 264.94 C28.39 264.87 27.83
						 264.19 21.71 256.89 C20.09 254.96 18.72 253.3 18.68 253.21 C18.62 253.09 19.25 251.25 21.08 246.21 C22.45
						 242.45 23.59 239.33 23.61 239.27 C23.64 239.21 23.7 239.15 23.76 239.15 C23.88 239.16 40.65 268.17 40.59
						 268.27 C40.56 268.31 33.69 268.34 25.31 268.34 C16.32 268.34 10.12 268.31 10.17 268.26 ZM0.03 264.8 C0 264.72
						 0.38 263.97 0.97 262.94 C1.51 262 3.83 257.99 6.11 254.05 L10.25 246.87 L16.11 241.94 C19.34 239.23 22.03
						 237.01 22.09 237.01 C22.15 237.01 22.17 237.07 22.14 237.16 C21.84 237.97 9.28 264.74 9.16 264.83 C9.04
						 264.91 7.97 264.94 4.55 264.94 C0.62 264.94 0.08 264.92 0.03 264.8 Z" class="st35"/>
		</g>
		<g id="shape70-122" v:mID="70" v:groupContext="shape" transform="translate(156.281,-1.35138)">
			<title>Sheet.70</title>
			<desc>Azure</desc>
			<v:textBlock v:margins="rect(4,4,4,4)" v:tabSpace="42.5197"/>
			<v:textRect cx="76" cy="258.341" width="152" height="20"/>
			<rect x="0" y="248.341" width="152" height="20" class="st5"/>
			<text x="61.93" y="261.94" class="st6" v:langID="1033"><v:paragraph v:horizAlign="1"/><v:tabList/>Azure</text>		</g>
		<g id="shape71-125" v:mID="71" v:groupContext="shape" transform="translate(0.375,-186.328)">
			<title>Sheet.71</title>
			<desc>(1) Direct Method Call – Function to Edge Module (2) Message ...</desc>
			<v:textBlock v:margins="rect(4,4,4,4)" v:tabSpace="42.5197" v:verticalAlign="0"/>
			<v:textRect cx="131.102" cy="227.522" width="262.21" height="81.6378"/>
			<rect x="0" y="186.703" width="262.205" height="81.6378" class="st5"/>
			<text x="4" y="201.5" class="st30" v:langID="1033"><v:paragraph/><v:tabList/>(1) Direct Method Call – Function to Edge Module<v:newlineChar/><tspan
						x="4" dy="1.2em" class="st36">(2) Message passing from Module to Module<v:newlineChar/></tspan><tspan x="4"
						dy="1.2em" class="st37">(3) Message passing upstream and picked up by </tspan><tspan x="4" dy="1.2em"
						class="st37">Function</tspan></text>		</g>
	</g>
</svg>
